<?xml version="1.0" encoding="UTF-8"?>
<svg version="1.1" xmlns="http://www.w3.org/2000/svg" width="1024" height="1024">
<path d="M0 0 C2.64508061 1.44307385 2.64508061 1.44307385 5.375 1.1875 C7.88756569 0.37782972 7.88756569 0.37782972 9.75 -1.75 C13.03661978 -5.03661978 16.75399247 -4.81617636 21.21484375 -4.91015625 C33.08507216 -4.81760086 44.13936327 -3.07549393 55.5625 0 C56.81861084 0.33507568 58.07472168 0.67015137 59.36889648 1.01538086 C69.85169178 3.9773156 78.66548654 8.21429799 87.5625 14.4375 C95.82835946 20.19392931 101.47306521 21.60782149 111.53710938 21.46484375 C116.21300797 21.56171496 118.82840106 21.97876667 122.3671875 25.125 C128.05233906 29.90755462 135.44888313 30.09458609 142.5625 31 C144.69018664 31.28863873 146.81665209 31.58402764 148.94230652 31.88726807 C150.85662155 32.15769078 152.77361211 32.4089701 154.69067383 32.65917969 C157.75 33.25 157.75 33.25 160.75 35.25 C161.9375 37.875 161.9375 37.875 162.75 40.25 C163.69617188 40.20617188 164.64234375 40.16234375 165.6171875 40.1171875 C178.14016343 39.96628893 186.43271468 44.57918568 196.75 51.25 C197.6467041 51.82685547 198.5434082 52.40371094 199.46728516 52.99804688 C204.32794954 56.13741791 209.16550335 59.31070443 213.99609375 62.49609375 C234.25240902 75.7906816 254.63259994 86.80541354 277.75 94.25 C277.84796875 95.01183594 277.9459375 95.77367188 278.046875 96.55859375 C279.03379618 103.37345468 280.41857498 109.20451193 283.75 115.25 C284.09804688 115.88808594 284.44609375 116.52617188 284.8046875 117.18359375 C287.96439385 122.25001946 292.13763498 125.24788125 297.75 127.25 C298.87664062 127.29253906 300.00328125 127.33507812 301.1640625 127.37890625 C305.52442953 127.59832515 307.98570121 127.97277679 311.75 130.25 C316.19275147 137.39923646 317.77427523 146.1688038 319.75 154.25 C320.28825393 156.26653902 320.82977689 158.2822091 321.375 160.296875 C325.39946426 175.72640944 325.39946426 175.72640944 323.75 181.25 C321.34959261 183.58372941 319.14313555 185.0627926 316.125 186.5 C312.26717869 189.34260518 311.21187394 193.90877693 310.31103516 198.47509766 C309.96732916 200.79272979 309.66671806 203.1127826 309.375 205.4375 C307.83962828 216.12509423 304.70384872 224.9925875 299.1875 234.3125 C295.72477469 240.50817195 294.50564764 246.39946691 293.31494141 253.35327148 C291.50728625 263.50476319 288.37815934 273.99368131 283.75 283.25 C283.79073101 286.7935981 283.87562065 290.32596182 284.05273438 293.86523438 C284.14002314 297.58632201 284.07679772 299.69412349 282.15625 302.9609375 C279.26344079 305.71286314 276.24648697 308.15865838 273.0625 310.5625 C271.80756721 311.54035067 270.55366126 312.51952056 269.30078125 313.5 C267.23186165 315.1108056 265.15231473 316.69157989 263.04296875 318.25 C255.40530398 324.28726824 252.84204725 332.28379118 249.6953125 341.2578125 C246.40388497 350.07499427 241.13065942 356.7796867 235.39697266 364.12158203 C226.32126429 375.85031396 218.12869755 388.14472677 210.07421875 400.5859375 C205.28553034 407.97799562 200.46381099 415.34784398 195.60543823 422.69430542 C194.62459718 424.18049869 193.64679142 425.66869997 192.67214966 427.15896606 C191.29693787 429.26090643 189.91143887 431.35570909 188.5234375 433.44921875 C187.91173454 434.39149826 187.91173454 434.39149826 187.28767395 435.35281372 C183.98576755 440.29441871 180.62802645 443.78007143 174.9375 445.625 C169.96529812 447.93285219 167.97011742 452.43035371 165.62768555 457.12255859 C163.13804215 462.03054295 160.61392656 465.28473381 155.29296875 467.078125 C154.51566406 467.21734375 153.73835938 467.3565625 152.9375 467.5 C151.75220703 467.72429687 151.75220703 467.72429687 150.54296875 467.953125 C149.95128906 468.05109375 149.35960937 468.1490625 148.75 468.25 C146.75 465.25 146.75 465.25 146.75 461.25 C149.06 460.59 151.37 459.93 153.75 459.25 C153.82476563 458.69054687 153.89953125 458.13109375 153.9765625 457.5546875 C155.29195212 449.53338999 158.38960255 442.58369757 161.75 435.25 C163.73 435.25 165.71 435.25 167.75 435.25 C167.99621094 434.41597656 168.24242187 433.58195312 168.49609375 432.72265625 C169.91880306 428.78250492 171.74309186 425.31769918 173.8125 421.6875 C174.20300537 420.9965625 174.59351074 420.305625 174.99584961 419.59375 C178.86054374 412.86583369 183.20017968 406.53154863 187.75 400.25 C185.40665931 399.88256128 185.40665931 399.88256128 182.75 400.25 C180.77504062 402.05816925 180.77504062 402.05816925 179.03515625 404.640625 C172.86340319 412.6175296 165.70782768 419.55515477 158.55688477 426.64892578 C156.18379624 429.00367514 153.81889069 431.36641141 151.45507812 433.73046875 C149.92755511 435.25307761 148.39957588 436.77522896 146.87109375 438.296875 C146.17503525 438.99182068 145.47897675 439.68676636 144.76182556 440.402771 C140.81672367 444.31036702 136.77758512 448.04833984 132.55628967 451.65655518 C130.70864673 453.28648039 128.97450349 454.99099253 127.25 456.75 C124.93980559 459.101726 122.57217812 461.30039265 120.0625 463.4375 C111.66334723 470.69279928 103.8674094 478.74039403 96.75 487.25 C95.94691406 488.19875 95.14382813 489.1475 94.31640625 490.125 C89.6147131 495.70167192 85.0276968 501.33773613 80.75 507.25 C77.28058454 506.79177532 74.07604951 506.35868317 70.75 505.25 C68.76986067 506.84065246 66.96277482 508.44641969 65.125 510.1875 C61.47121175 513.47590943 58.63658676 515.96468644 53.5 515.875 C52.2625 515.66875 51.025 515.4625 49.75 515.25 C50.0969341 512.39883251 50.61377872 511.37639636 52.75390625 509.390625 C53.59824219 508.76671875 54.44257813 508.1428125 55.3125 507.5 C66.87011618 498.51074297 73.33243175 489.360485 77.75 475.25 C73.15094924 476.78301692 71.14557118 480.85254342 68.421875 484.67773438 C67.26388582 486.2525299 66.01216914 487.75740195 64.75 489.25 C63.76 489.25 62.77 489.25 61.75 489.25 C61.42 488.59 61.09 487.93 60.75 487.25 C60.06292969 487.87648438 59.37585938 488.50296875 58.66796875 489.1484375 C57.76691406 489.96570313 56.86585938 490.78296875 55.9375 491.625 C55.04417969 492.43710937 54.15085937 493.24921875 53.23046875 494.0859375 C50.75 496.25 50.75 496.25 47.75 498.25 C47.24210938 497.93804687 46.73421875 497.62609375 46.2109375 497.3046875 C41.67592967 494.7170788 41.67592967 494.7170788 36.5625 494.6875 C31.29958916 497.61133936 28.83832408 501.10279321 25.75 506.25 C21.46 505.92 17.17 505.59 12.75 505.25 C6.58404134 513.5789601 3.86421965 519.28322888 3.78515625 529.7421875 C3.75 533.25 3.75 533.25 3.25170898 536.56420898 C2.78094295 540.0226785 2.65019332 543.24514444 2.6875 546.73046875 C2.69587891 547.96192627 2.70425781 549.19338379 2.71289062 550.4621582 C2.72513672 551.774021 2.73738281 553.08588379 2.75 554.4375 C2.8115367 564.6614914 2.68760227 574.84534137 2.25 585.0625 C0.88118455 615.76956948 0.88118455 615.76956948 3.37890625 646.3203125 C3.92831606 652.13827327 3.45499843 657.83064119 3.07104492 663.6496582 C2.69951164 669.90563158 3.00125247 675.48191434 4.1796875 681.65625 C5.7611181 691.62142914 5.98999444 701.80376215 6.3125 711.875 C6.34626236 712.86265854 6.34626236 712.86265854 6.38070679 713.87026978 C6.73537484 724.59487509 6.75430979 735.30548743 6.671875 746.03515625 C6.66385361 747.3374115 6.65583221 748.63966675 6.64756775 749.98138428 C6.60663162 756.55870812 6.5453754 763.13467216 6.44946289 769.71142578 C6.14006188 785.97199204 6.14006188 785.97199204 9.8449707 801.67016602 C11.25687969 805.69488743 11.17190924 809.03090758 10.75 813.25 C10.09 813.91 9.43 814.57 8.75 815.25 C7.79941008 823.05712252 9.15708959 831.38667873 9.75 839.1875 C10.41538951 848.12084284 10.82951376 856.99665326 10.7421875 865.95703125 C10.7351178 866.75636581 10.7280481 867.55570038 10.72076416 868.3792572 C10.67927598 872.29190643 10.6072745 876.201656 10.5 880.11303711 C10.47617396 881.5388933 10.45271749 882.96475573 10.4296875 884.390625 C10.39601074 885.64391602 10.36233398 886.89720703 10.32763672 888.18847656 C10.41979876 891.34810328 10.41979876 891.34810328 12.74291992 892.96801758 C13.73642456 893.60259888 13.73642456 893.60259888 14.75 894.25 C15.08228473 896.8334389 15.20736029 899.10686644 15.1875 901.6875 C15.33431826 908.5245945 16.80244221 913.41113088 19.73828125 919.64453125 C21.29405167 923.65109058 20.63997857 926.07394673 19.75 930.25 C19.26630085 936.72273107 20.25198699 942.59954009 21.75 948.875 C23.07197731 954.46660674 23.9970316 959.49107578 23.75 965.25 C23.09 965.58 22.43 965.91 21.75 966.25 C22.20058083 969.17877537 22.88116068 970.40898264 24.8125 972.75 C29.88157134 980.08591447 26.46553797 993.84850446 25.8125 1002.25 C25.68198242 1004.05017578 25.68198242 1004.05017578 25.54882812 1005.88671875 C24.82242191 1015.4968039 24.82242191 1015.4968039 23.75 1019.25 C22.76 1019.25 21.77 1019.25 20.75 1019.25 C17.30323106 1013.53718919 15.04067103 1009.32335266 16.35229492 1002.63476562 C17.86581819 993.5592007 16.19787218 984.21003128 15 975.1875 C14.86611374 974.16160767 14.86611374 974.16160767 14.72952271 973.11499023 C13.0291668 951.76585223 13.0291668 951.76585223 3.92578125 933.47265625 C3.31089844 933.08980469 2.69601562 932.70695313 2.0625 932.3125 C0.969375 931.631875 -0.12375 930.95125 -1.25 930.25 C-0.59034961 923.38963599 0.9862764 916.90556077 2.75 910.25 C0.11 910.25 -2.53 910.25 -5.25 910.25 C-4.59 901.01 -3.93 891.77 -3.25 882.25 C-4.57 881.59 -5.89 880.93 -7.25 880.25 C-6.755 853.52 -6.755 853.52 -6.25 826.25 C-7.57 825.92 -8.89 825.59 -10.25 825.25 C-13.76750735 801.69526328 -13.76750735 801.69526328 -9.22265625 794.0390625 C-5.47852683 787.15227023 -7.22860126 777.12399061 -9.3125 769.875 C-9.621875 769.00875 -9.93125 768.1425 -10.25 767.25 C-10.724375 768.425625 -11.19875 769.60125 -11.6875 770.8125 C-11.95433594 771.47378906 -12.22117187 772.13507812 -12.49609375 772.81640625 C-14.34286942 778.77775985 -14.38375392 784.86033622 -14.5402832 791.04541016 C-15.24182422 818.10022818 -15.24182422 818.10022818 -22.25 828.25 C-25.25 827.25 -25.25 827.25 -26.875 824.4375 C-32.08636762 812.35660234 -29.37284143 797.03616322 -27.75 784.375 C-25.33192379 764.68576795 -26.05363652 747.35385918 -30.20288086 728.00756836 C-31.99020382 719.46182043 -32.44138722 711.91540247 -31.25 703.25 C-29.86469533 692.56974787 -31.93734955 686.7099288 -38.33691406 678.28613281 C-42.04649076 673.29274927 -43.06340167 670.49224158 -42.25 664.25 C-41.43044298 661.6301494 -40.59570044 659.29996547 -39.5 656.8125 C-39.22921631 656.15926758 -38.95843262 655.50603516 -38.67944336 654.83300781 C-37.20285792 651.30320298 -35.55891404 647.90091155 -33.8125 644.5 C-31.49294536 639.23004951 -32.27415227 634.80288837 -33.25 629.25 C-33.36907715 628.46463867 -33.4881543 627.67927734 -33.61083984 626.87011719 C-34.02149702 624.17808686 -34.47411917 621.49592685 -34.9375 618.8125 C-35.07349609 617.93553467 -35.20949219 617.05856934 -35.34960938 616.1550293 C-36.36149674 610.72558117 -36.36149674 610.72558117 -40.2734375 606.8984375 C-41.25570312 606.35445312 -42.23796875 605.81046875 -43.25 605.25 C-45.35505618 602.01194722 -46.35149885 598.60331798 -46.0625 594.75 C-45.794375 593.925 -45.52625 593.1 -45.25 592.25 C-42.86874173 584.74405663 -42.85832363 577.38626537 -42.875 569.5625 C-42.8735498 568.86956848 -42.87209961 568.17663696 -42.87060547 567.46270752 C-42.87381787 553.43533805 -44.51864219 539.90902579 -46.8828125 526.08544922 C-47.26813508 523.10995954 -47.31214768 520.24696091 -47.25 517.25 C-48.32930786 517.26571045 -48.32930786 517.26571045 -49.43041992 517.28173828 C-55.18017479 517.3544559 -60.92946372 517.39412777 -66.6796875 517.37890625 C-67.77265137 517.37705322 -68.86561523 517.3752002 -69.99169922 517.37329102 C-74.37191585 517.20754777 -78.60773238 516.59625962 -82.90625 515.7578125 C-88.48582346 514.91044737 -94.1085482 514.79268124 -99.7434082 514.59204102 C-102.24724091 514.4992365 -104.74809377 514.38486818 -107.25 514.25 C-108.01739502 514.2097168 -108.78479004 514.16943359 -109.57543945 514.12792969 C-114.77940876 513.69559448 -114.77940876 513.69559448 -116.94140625 511.6484375 C-119.09123995 506.65465339 -119.57723208 503.55892831 -118.25 498.25 C-116.93 498.25 -115.61 498.25 -114.25 498.25 C-113.734375 497.280625 -113.21875 496.31125 -112.6875 495.3125 C-109.94083322 491.86155969 -109.36181032 491.67643588 -105.1875 491.125 C-101.0279243 490.94556732 -98.26490977 491.47394401 -94.5 493.1875 C-81.83536243 498.45380253 -64.39097228 495.80076065 -51.25 493.25 C-50.89760445 487.46810272 -51.32790393 482.37829569 -52.75 476.75 C-54.8027142 468.51977799 -54.46163281 461.57997556 -53.25 453.25 C-52.9829207 448.74366008 -52.9829207 448.74366008 -53.25 444.25 C-53.91 443.59 -54.57 442.93 -55.25 442.25 C-55.48046875 440.31640625 -55.48046875 440.31640625 -55.4375 437.8125 C-55.42460937 436.83539063 -55.41171875 435.85828125 -55.3984375 434.8515625 C-55.2853068 432.10665444 -55.12140587 429.38649077 -54.9140625 426.6484375 C-54.85710205 425.83173584 -54.8001416 425.01503418 -54.74145508 424.17358398 C-54.6251055 422.55722959 -54.4929792 420.94190673 -54.3425293 419.32836914 C-53.95722893 413.93924113 -54.80981461 409.85030477 -56.51293945 404.74389648 C-57.45312497 401.56271229 -57.76818435 398.5074735 -58.00015259 395.20825195 C-58.5881719 386.90414341 -59.59732154 378.81838692 -61.1484375 370.640625 C-63.43238344 358.04972387 -64.73441052 345.419795 -65.9375 332.6875 C-66.254755 329.40839289 -66.57446216 326.12954003 -66.89595032 322.85084534 C-67.0925885 320.83773539 -67.28643552 318.82435008 -67.47697449 316.81065369 C-67.91547802 312.24868099 -68.49474269 307.77160627 -69.25 303.25 C-69.34398731 301.53412502 -69.40302778 299.81595275 -69.42578125 298.09765625 C-69.46155273 296.68516602 -69.46155273 296.68516602 -69.49804688 295.24414062 C-69.54092489 293.29384076 -69.57222491 291.34325109 -69.59179688 289.39257812 C-69.77723835 283.08325524 -70.78701436 279.51185172 -74.25 274.25 C-76.04285619 265.6994551 -74.89546249 256.8991974 -74.25 248.25 C-75.054375 247.940625 -75.85875 247.63125 -76.6875 247.3125 C-79.25 246.25 -79.25 246.25 -80.25 245.25 C-80.27768522 243.60426767 -80.29669585 241.95838931 -80.3125 240.3125 C-80.77649071 233.568635 -83.14469226 228.33580196 -86.27954102 222.44946289 C-92.93706796 209.1298102 -91.91613488 191.37353286 -92.85180664 176.7434082 C-93.66358038 150.09835499 -93.66358038 150.09835499 -105.25 127.25 C-109.11109785 125.96296738 -111.60855005 126.99304232 -115.33984375 128.171875 C-116.03960831 128.39135803 -116.73937286 128.61084106 -117.46034241 128.8369751 C-118.94734666 129.30934277 -120.4326216 129.78718346 -121.91625977 130.27001953 C-124.13986873 130.98469123 -126.37382159 131.65458008 -128.61132812 132.32421875 C-150.21513073 139.13137132 -162.18533052 158.17593242 -174.25 176.25 C-179.46997375 173.80068263 -182.62783429 171.49433143 -185.25 166.25 C-186.70140351 157.02715743 -183.2167887 149.91418363 -178.00048828 142.46582031 C-171.29351462 133.29351462 -171.29351462 133.29351462 -168.25 130.25 C-166.25041636 130.20919217 -164.24954746 130.20745644 -162.25 130.25 C-162.394375 129.15300781 -162.53875 128.05601562 -162.6875 126.92578125 C-162.87516526 125.47137548 -163.06265606 124.01694719 -163.25 122.5625 C-163.34539062 121.84126953 -163.44078125 121.12003906 -163.5390625 120.37695312 C-164.01683735 116.64007129 -164.36919794 113.02708469 -164.25 109.25 C-158.5 109.125 -158.5 109.125 -156.25 110.25 C-156.023125 109.54875 -155.79625 108.8475 -155.5625 108.125 C-152.58607651 101.60521522 -147.88992991 97.97230478 -142 94.25 C-141.33758301 93.81848633 -140.67516602 93.38697266 -139.99267578 92.94238281 C-137.15880185 91.09832426 -134.30658508 89.2856218 -131.4453125 87.484375 C-125.40619703 83.6209678 -121.39464069 79.82131193 -118.25 73.25 C-126.26926245 73.51292664 -133.20896775 75.65681727 -140.7355957 78.25439453 C-141.53312256 78.52364746 -142.33064941 78.79290039 -143.15234375 79.0703125 C-143.86898193 79.32055176 -144.58562012 79.57079102 -145.32397461 79.82861328 C-147.25 80.25 -147.25 80.25 -150.25 79.25 C-151.66402507 76.74894316 -152.96804444 74.25427326 -154.25 71.6875 C-158.31148291 63.9408679 -162.55569116 59.62209325 -170.25 55.25 C-169.26 54.755 -169.26 54.755 -168.25 54.25 C-166.765 54.745 -166.765 54.745 -165.25 55.25 C-143.16007074 49.28971311 -121.94316051 36.62945612 -101.4375 26.625 C-100.59657806 26.21476593 -99.75565613 25.80453186 -98.88925171 25.38186646 C-88.72554253 20.42428573 -88.72554253 20.42428573 -78.57470703 15.44042969 C-22.55546299 -12.1452493 -22.55546299 -12.1452493 0 0 Z M12.75 29.25 C12.75 30.24 12.75 31.23 12.75 32.25 C15.72065509 31.90772428 15.72065509 31.90772428 18.75 31.25 C19.08 30.59 19.41 29.93 19.75 29.25 C17.44 29.25 15.13 29.25 12.75 29.25 Z M25.75 31.25 C27.97302337 33.7684885 29.80952375 34.85984847 33 35.875 C33.72703125 36.11476563 34.4540625 36.35453125 35.203125 36.6015625 C40.85745399 38.0411616 46.43208968 38.40744881 52.25 38.4375 C53.4978125 38.45167969 54.745625 38.46585938 56.03125 38.48046875 C59.96826537 38.23647305 63.02031003 37.46599428 66.75 36.25 C66.255 35.26 66.255 35.26 65.75 34.25 C63.36834376 33.85529485 61.08008282 33.58950734 58.6796875 33.3984375 C57.96523468 33.33467926 57.25078186 33.27092102 56.51467896 33.20523071 C54.99682219 33.07153134 53.47855882 32.94238348 51.95996094 32.81738281 C49.6546585 32.62744363 47.35082135 32.42442418 45.046875 32.21875 C43.57038002 32.09036698 42.0938191 31.96273955 40.6171875 31.8359375 C39.93461884 31.77659027 39.25205017 31.71724304 38.54879761 31.65609741 C34.27157343 31.30706606 30.0404045 31.19777141 25.75 31.25 Z M-81.25 61.25 C-81.25 61.58 -81.25 61.91 -81.25 62.25 C-76.02895216 62.88671315 -73.57292214 61.48234994 -69.5703125 58.44140625 C-68.91675781 57.85166016 -68.91675781 57.85166016 -68.25 57.25 C-68.25 56.92 -68.25 56.59 -68.25 56.25 C-73.52037929 55.42650324 -77.20511663 58.18873591 -81.25 61.25 Z M43.75 80.25 C44.08 81.57 44.41 82.89 44.75 84.25 C47.72 83.26 50.69 82.27 53.75 81.25 C53.75 80.92 53.75 80.59 53.75 80.25 C50.45 80.25 47.15 80.25 43.75 80.25 Z M-17.25 86.25 C-14.01319429 87.29318738 -11.79451583 87.17287835 -8.484375 86.47265625 C-7.59492188 86.28896484 -6.70546875 86.10527344 -5.7890625 85.91601562 C-4.86867188 85.71685547 -3.94828125 85.51769531 -3 85.3125 C-2.06414062 85.11720703 -1.12828125 84.92191406 -0.1640625 84.72070312 C2.14238027 84.23823295 4.446816 83.74775423 6.75 83.25 C6.75 82.92 6.75 82.59 6.75 82.25 C4.06139069 82.14112493 1.37726842 82.06229406 -1.3125 82 C-2.06466797 81.96648437 -2.81683594 81.93296875 -3.59179688 81.8984375 C-9.31454718 81.79934226 -12.50548893 83.04918775 -17.25 86.25 Z M82.3125 91.6875 C70.0474499 94.24063288 58.76527221 95.39038979 46.25 95.3125 C44.84114742 95.30747533 43.43229311 95.30291413 42.0234375 95.29882812 C38.59891362 95.2871003 35.17447953 95.27068691 31.75 95.25 C30.45565745 103.19448553 29.34754612 111.15601215 28.3046875 119.13671875 C25.02050957 144.20560946 21.46123808 169.19715244 17.32763672 194.14135742 C17.16281799 195.14288849 16.99799927 196.14441956 16.82818604 197.17630005 C16.52396951 199.02098039 16.21633535 200.86510257 15.90423584 202.70846558 C14.02631811 214.08210083 13.64664654 225.20712185 13.79709625 236.7127037 C13.84000224 240.21042828 13.86283449 243.70820708 13.88712692 247.20610237 C13.9322706 253.68175211 13.98442397 260.15709851 14.07226562 266.63232422 C14.31841217 285.35108066 14.34233286 303.20631365 10.5745697 321.61294556 C7.7457889 336.04938073 8.03177515 350.5839408 8.05969238 365.2388916 C8.06719985 371.28501027 8.03534337 377.33096918 7.99724388 383.3769455 C7.98854118 385.45360068 7.99361622 387.52985372 8.00080872 389.60650635 C7.98046832 396.51411446 7.47246743 402.56672498 5.75 409.25 C5.42872347 414.39617051 5.80044532 419.49594645 6.20751953 424.62744141 C6.83161407 432.76978264 6.47832711 440.27852154 5.296875 448.33984375 C3.40044064 461.89934944 3.62051234 475.59204049 3.75 489.25 C4.80316406 488.93289063 5.85632813 488.61578125 6.94140625 488.2890625 C9.94085566 487.47075117 12.61257674 486.90883907 15.6875 486.625 C16.84572266 486.51285156 16.84572266 486.51285156 18.02734375 486.3984375 C18.59582031 486.34945313 19.16429687 486.30046875 19.75 486.25 C20.08 487.24 20.41 488.23 20.75 489.25 C21.74 489.25 22.73 489.25 23.75 489.25 C24.08 487.6 24.41 485.95 24.75 484.25 C31.40510338 483.09259072 38.35834162 482.31895652 44.9375 484.125 C48.34144284 484.27628635 48.81782111 483.6734756 51.3125 481.5 C51.89515625 480.93410156 52.4778125 480.36820312 53.078125 479.78515625 C54.75 478.25 54.75 478.25 57.5625 476.9375 C60.15056757 474.94099073 60.12752522 474.35182106 60.6875 471.25 C63.17370054 457.58689791 74.11491114 446.34799906 84.0390625 437.26953125 C94.11418075 427.95584152 100.93226722 418.83501775 106.98388672 406.45996094 C111.50109832 397.22697899 117.21353707 389.83024172 124.1875 382.3125 C128.03050571 378.09632338 131.64378527 373.73936095 135.23046875 369.3046875 C138.1957263 365.70960005 141.24784041 362.19780066 144.3125 358.6875 C148.54374953 353.8319975 152.69417804 348.94000299 156.6796875 343.87890625 C158.25667148 341.87643414 159.84487174 339.88593381 161.4453125 337.90234375 C170.15832713 327.09461799 178.67070797 316.13389796 186.921875 304.96875 C193.80705749 295.6561202 200.88526401 286.97906148 209.21484375 278.91015625 C218.40349302 269.97619531 226.7590176 261.67534541 232.75 250.25 C233.20503906 249.43015625 233.66007813 248.6103125 234.12890625 247.765625 C237.0096267 241.78336232 237.08498667 236.01659544 237.24145508 229.50439453 C237.46218005 223.91228066 238.91961368 220.35245877 241.80078125 215.53125 C243.55032282 211.32659044 242.13941163 207.41060076 240.75 203.25 C239.68829177 200.06487531 239.6779507 197.94459106 239.7578125 194.60546875 C240.99072538 159.35676769 240.99072538 159.35676769 226.75 128.25 C210.16921964 114.05768278 181.37595974 109.40750954 160.75 103.25 C159.74700867 102.95019226 158.74401733 102.65038452 157.71063232 102.3414917 C151.09115015 100.36834396 144.46275975 98.42882007 137.82406616 96.52130127 C135.63161469 95.88890554 133.44098194 95.25016535 131.25234985 94.60467529 C113.84680404 89.48699828 100.28967686 87.78689319 82.3125 91.6875 Z M-23.96484375 107.953125 C-25.72961866 111.24402199 -26.4216154 113.24722087 -25.78004456 116.99603271 C-25.24912975 120.2553425 -25.13100729 123.2796351 -25.12475586 126.57910156 C-24.90606074 146.6827255 -22.61084801 165.94129833 -19.19873047 185.73632812 C-18.67333349 188.81564593 -18.16908226 191.89828041 -17.66511631 194.98116684 C-17.05732645 198.69198653 -16.43718521 202.40071036 -15.81640625 206.109375 C-15.70144869 206.80319023 -15.58649113 207.49700546 -15.46805 208.2118454 C-15.14258598 210.16290225 -14.80700114 212.11226269 -14.47094727 214.06152344 C-14.28299088 215.16413513 -14.09503448 216.26674683 -13.90138245 217.402771 C-13.30992075 219.98808304 -12.56083841 221.96062889 -11.25 224.25 C-10.05764503 216.78972496 -10.42423307 209.95111389 -11.48779297 202.52954102 C-12.71347707 193.77303056 -12.20399664 185.71141615 -10.8125 177 C-8.21980743 160.60028912 -8.12437926 144.50728922 -8.1875 127.9375 C-8.19252461 125.63606868 -8.19708581 123.3346363 -8.20117188 121.03320312 C-8.21210235 115.43877864 -8.22876442 109.84439437 -8.25 104.25 C-16.78116305 104.16556803 -16.78116305 104.16556803 -23.96484375 107.953125 Z M277.75 153.25 C277.75 154.24 277.75 155.23 277.75 156.25 C278.74 156.25 279.73 156.25 280.75 156.25 C280.75 155.26 280.75 154.27 280.75 153.25 C279.76 153.25 278.77 153.25 277.75 153.25 Z M0.75 180.25 C-4.07554175 197.69950364 -5.80372141 215.72933125 -0.25 233.25 C0.08 233.25 0.41 233.25 0.75 233.25 C0.7185791 232.27281006 0.7185791 232.27281006 0.68652344 231.27587891 C0.21538437 214.18068739 1.62388273 198.05703741 4.75 181.25 C3.43 180.92 2.11 180.59 0.75 180.25 Z M-1.25 236.25 C-0.26 237.735 -0.26 237.735 0.75 239.25 C0.75 238.26 0.75 237.27 0.75 236.25 C0.09 236.25 -0.57 236.25 -1.25 236.25 Z M-11.25 244.25 C-11.25 247.22 -11.25 250.19 -11.25 253.25 C-10.92 253.25 -10.59 253.25 -10.25 253.25 C-10.25 250.28 -10.25 247.31 -10.25 244.25 C-10.58 244.25 -10.91 244.25 -11.25 244.25 Z M-0.25 246.25 C-0.58 247.9 -0.91 249.55 -1.25 251.25 C-0.26 251.25 0.73 251.25 1.75 251.25 C2.41 249.93 3.07 248.61 3.75 247.25 C2.43 246.92 1.11 246.59 -0.25 246.25 Z M225.75 312.25 C226.08 313.57 226.41 314.89 226.75 316.25 C227.08 314.93 227.41 313.61 227.75 312.25 C227.09 312.25 226.43 312.25 225.75 312.25 Z M195.75 328.25 C194.81108246 329.31410655 193.90057841 330.40325599 193 331.5 C189.16897639 335.96556168 184.93476881 339.86921215 180.54589844 343.77246094 C173.36656186 350.22995023 168.46365919 357.04320917 163.8125 365.5 C162.75949438 367.37334221 161.70482133 369.24574819 160.6484375 371.1171875 C160.14795898 372.00631836 159.64748047 372.89544922 159.13183594 373.81152344 C155.24505388 380.67038901 151.4165694 387.08307207 145.5847168 392.47802734 C143.80628849 394.19563648 142.22157164 395.97693776 140.625 397.86328125 C135.64597318 403.60430993 130.19013127 408.8563163 124.77734375 414.18359375 C120.43311963 418.48597944 116.25462021 422.84848967 112.27392578 427.48974609 C110.23983296 429.83928298 108.08291669 432.06474657 105.9375 434.3125 C96.5225709 444.67178369 85.50735395 459.2589818 82.75 473.25 C85.94653477 471.87313762 87.70404184 470.38756103 89.875 467.6875 C93.38978987 463.51226365 97.2877916 459.9835874 101.41796875 456.42578125 C106.34685152 451.82714188 108.33097982 448.11147433 109.84375 441.65234375 C111.29772775 437.79804927 113.56446448 435.85413072 117.1953125 434.00390625 C118.07960938 433.61074219 118.96390625 433.21757812 119.875 432.8125 C127.16009272 428.92390084 131.24114872 422.9261741 135.75 416.25 C136.17796875 415.6214209 136.6059375 414.9928418 137.046875 414.34521484 C139.46399399 410.78085298 141.84595399 407.19421338 144.21484375 403.59765625 C155.26425605 386.84115633 166.3444336 370.04197686 178.75 354.25 C179.925625 352.73986328 179.925625 352.73986328 181.125 351.19921875 C185.68200697 345.47922562 190.53192644 340.42778977 195.9765625 335.5390625 C198.07470409 333.36235126 198.07470409 333.36235126 197.5234375 330.4609375 C197.26820313 329.73132813 197.01296875 329.00171875 196.75 328.25 C196.42 328.25 196.09 328.25 195.75 328.25 Z M189.75 392.25 C189.49969023 394.83380177 189.49969023 394.83380177 189.75 397.25 C192.27588702 394.88707344 193.63820837 393.58537489 194.75 390.25 C192.42642489 390.06509993 192.42642489 390.06509993 189.75 392.25 Z M-11.25 755.25 C-11.25 756.9 -11.25 758.55 -11.25 760.25 C-10.26 760.745 -10.26 760.745 -9.25 761.25 C-9.58 759.27 -9.91 757.29 -10.25 755.25 C-10.58 755.25 -10.91 755.25 -11.25 755.25 Z " fill="#FEFEFE" transform="translate(442.25,4.75)"/>
</svg>
