<svg width="1000" height="161" viewBox="0 0 1000 161" fill="none" xmlns="http://www.w3.org/2000/svg">
<path fill-rule="evenodd" clip-rule="evenodd" d="M115 104V0H78V108C78 115 68.5 125 58 125C46.5 125 37 115 37 108V0H0V103C0 118 10.5 161 58 161C105.5 161 115 114 115 104ZM125 0V161H229V125H163V0H125ZM314 0H276L233 39V161H271V34H314V0ZM191 0H268L230 34H191V0ZM534 2V0H495L440 161H479L490 128H539L528 95H502L534 2ZM595 161L540 0L519 58L555 161H595ZM436 105V161H399V114C399 105 396 95 358 95V161H321V0H398C416 0 436 26 436 45C436 68 415.5 77.5 414 77.5C418.5 77.5 436 99.5 436 105ZM358 64V35H392C394.5 35 399 41.5 399 47C399 58.5 386.5 64 383 64H358ZM674.5 75L662 58H644L682 0H728L674.5 75ZM638 161V0H601V161L638 161ZM660 62L730 161H682L643 95H641V62H660ZM774 0H737V161H774V0ZM786 0H823V124L786 88V0ZM786 161L851.5 160.5L786 94V161ZM824 125L859 161H889V125H824ZM934 125H978L932 161H897V0H934V125ZM1000 161H940L986 125H1000V161ZM764 49.5C764 54.1944 760.194 58 755.5 58C750.806 58 747 54.1944 747 49.5C747 44.8056 750.806 41 755.5 41C760.194 41 764 44.8056 764 49.5ZM755.5 120C760.194 120 764 116.194 764 111.5C764 106.806 760.194 103 755.5 103C750.806 103 747 106.806 747 111.5C747 116.194 750.806 120 755.5 120Z" fill="black"/>
</svg>