<?xml version="1.0" encoding="UTF-8"?>
<svg version="1.1" xmlns="http://www.w3.org/2000/svg" width="256" height="256">
<path d="M0 0 C3.8697079 2.16428327 6.83297229 5.19810926 9.84375 8.41796875 C13.25519012 12.02570205 17.13143683 15.89546472 21.40795898 18.45483398 C28.14657467 23.01904658 29.79051367 30.58313542 32.0402832 37.98461914 C32.74761619 40.30468107 33.49264181 42.60992887 34.24414062 44.91601562 C39.85396591 62.47505119 39.85396591 62.47505119 36.73803711 68.6184082 C35.21455532 70.94655138 33.56135511 73.0862688 31.8125 75.25 C31.18891602 76.05783936 30.56533203 76.86567871 29.92285156 77.69799805 C28.59078871 79.42119339 27.24968968 81.13743532 25.90039062 82.84716797 C22.40035175 87.2942473 18.98840793 91.80824677 15.5625 96.3125 C14.53962891 97.64909668 14.53962891 97.64909668 13.49609375 99.01269531 C9.84858792 103.78455367 6.26638071 108.58633809 2.8125 113.5 C-1.95070755 120.27637519 -6.98655958 126.83580436 -12.0234375 133.41015625 C-16.47475154 139.22854051 -20.85947231 145.089442 -25.1875 151 C-30.32186773 157.99884851 -35.50892875 164.95563511 -40.75 171.875 C-41.41708984 172.76123047 -42.08417969 173.64746094 -42.77148438 174.56054688 C-46.02173809 178.8358043 -49.25782196 182.83431184 -53.1875 186.5 C-57.38784023 184.94770035 -60.84245372 183.14211587 -64.47265625 180.515625 C-68.81470942 177.43109109 -73.22731406 174.48476129 -77.69140625 171.58203125 C-79.02166954 170.71187156 -80.35174572 169.84142573 -81.68164062 168.97070312 C-83.73204484 167.62859786 -85.78448683 166.29026068 -87.84399414 164.9621582 C-89.86278671 163.65855709 -91.87148708 162.34055754 -93.87890625 161.01953125 C-94.4985878 160.62466019 -95.11826935 160.22978912 -95.75672913 159.82295227 C-99.94253271 157.04219597 -99.94253271 157.04219597 -101.12817383 154.41796875 C-101.22447332 151.30468162 -100.24102793 148.64278027 -99.3125 145.6875 C-93.51745775 127.10689252 -95.14462718 107.67674854 -103.375 90.125 C-109.68681906 78.41262238 -119.07220901 67.91019399 -130.1875 60.5 C-131.89493209 55.42335699 -132.56843333 49.83306666 -132.1875 44.5 C-132.1672023 43.85417465 -132.1469046 43.2083493 -132.12599182 42.54295349 C-130.5736151 39.16366625 -127.27108241 38.4534324 -123.98413086 37.18774414 C-123.22939987 36.88307724 -122.47466888 36.57841034 -121.69706726 36.26451111 C-119.18793395 35.25621206 -116.67055599 34.27053851 -114.15234375 33.28515625 C-112.39801146 32.58658716 -110.64415741 31.88681597 -108.89076233 31.18589783 C-105.20129855 29.71474257 -101.50796219 28.25394332 -97.8112793 26.80102539 C-93.11563621 24.95526863 -88.42749921 23.09135167 -83.74190426 21.22025394 C-80.11036178 19.77116341 -76.47621224 18.32871215 -72.84115791 16.88845634 C-71.11505279 16.20440628 -69.38941504 15.51917547 -67.66428947 14.83265877 C-58.05362056 11.01577543 -48.46791864 7.50698027 -38.53736877 4.61009216 C-35.40331623 3.571518 -32.7391216 2.31226643 -29.875 0.6875 C-21.43507448 -3.35956596 -8.73348915 -3.38707492 0 0 Z M-43.1875 10.125 C-44.73363654 10.80813023 -46.28136554 11.48766617 -47.83056641 12.16381836 C-51.02462048 13.56036321 -54.21186147 14.97101669 -57.39550781 16.39111328 C-64.33179267 19.4661631 -71.35958364 22.31711583 -78.38671875 25.17669678 C-81.81016467 26.57044876 -85.22995298 27.97303461 -88.6484375 29.37890625 C-89.2754657 29.63671875 -89.9024939 29.89453125 -90.54852295 30.16015625 C-97.12393334 32.87237133 -103.65846235 35.6781923 -110.1875 38.5 C-107.85376238 40.9038499 -105.51462321 42.69064114 -102.6875 44.5 C-100.41622717 45.95361461 -98.42173335 47.26134715 -96.53125 49.1875 C-95.262105 50.73291317 -95.262105 50.73291317 -93.1875 50.5 C-92.92839844 51.06074219 -92.66929688 51.62148437 -92.40234375 52.19921875 C-91.0515713 54.7574341 -89.45880857 56.97896571 -87.75 59.3125 C-84.93490243 63.27123096 -82.86773186 66.95349026 -81.1875 71.5 C-76.28110593 70.93208453 -72.27859804 69.36114996 -67.88671875 67.2109375 C-66.83553108 66.70824089 -66.83553108 66.70824089 -65.7631073 66.19538879 C-64.2527185 65.47241237 -62.74389851 64.7461511 -61.23651123 64.01693726 C-57.19274804 62.06152676 -53.13682223 60.13162985 -49.08203125 58.19921875 C-48.25413086 57.803965 -47.42623047 57.40871124 -46.57324219 57.0014801 C-38.44801088 53.13000611 -30.26470917 49.39246822 -22.0625 45.6875 C-19.37359886 44.47157314 -16.68484236 43.25532659 -13.99609375 42.0390625 C-13.34726227 41.74571518 -12.69843079 41.45236786 -12.02993774 41.15013123 C-1.38552859 36.33291753 9.21218964 31.41328761 19.8125 26.5 C19.8125 25.84 19.8125 25.18 19.8125 24.5 C17.74398136 22.73345489 15.66646352 21.07639652 13.5 19.4375 C12.2152952 18.45032477 10.93145214 17.46202716 9.6484375 16.47265625 C9.00358398 15.97652832 8.35873047 15.48040039 7.69433594 14.96923828 C4.06004292 12.13177391 0.54526076 9.15039213 -2.98046875 6.1796875 C-14.21227686 -2.36841425 -32.08065577 5.00190833 -43.1875 10.125 Z M9.015625 62.859375 C8.0138453 63.9741855 7.03039751 65.1056489 6.0625 66.25 C5.53809326 66.84474121 5.01368652 67.43948242 4.47338867 68.05224609 C2.89868883 69.85128608 1.35122109 71.67014215 -0.1875 73.5 C-1.00089844 74.46679688 -1.81429687 75.43359375 -2.65234375 76.4296875 C-4.85516716 79.10094964 -7.02459094 81.79636367 -9.1875 84.5 C-10.58101598 86.21022416 -11.97691256 87.91851092 -13.375 89.625 C-14.48294922 90.97851562 -14.48294922 90.97851562 -15.61328125 92.359375 C-16.47123574 93.40634706 -17.32932018 94.45321263 -18.1875 95.5 C-18.71005371 96.13744141 -19.23260742 96.77488281 -19.77099609 97.43164062 C-31.20690916 111.37293653 -31.20690916 111.37293653 -36.68310547 117.81469727 C-38.02508878 119.39348719 -39.36053919 120.9776138 -40.6953125 122.5625 C-42.33630856 124.49671479 -43.99744737 126.41404719 -45.6796875 128.3125 C-46.42476563 129.17875 -47.16984375 130.045 -47.9375 130.9375 C-48.59234375 131.67871094 -49.2471875 132.41992188 -49.921875 133.18359375 C-51.63865091 136.32571757 -51.12110404 138.11568536 -50.1875 141.5 C-48.61388554 143.86042169 -47.70639558 144.37368391 -44.95703125 145.04296875 C-40.40211917 144.1499747 -38.70279103 140.5871238 -36.125 136.9375 C-34.9729939 135.36728526 -33.8193134 133.79829775 -32.6640625 132.23046875 C-32.08430664 131.43560059 -31.50455078 130.64073242 -30.90722656 129.82177734 C-28.36421064 126.38848924 -25.69069905 123.06795978 -23 119.75 C-18.97469017 114.75342354 -15.01393824 109.71731325 -11.11425781 104.62182617 C-8.11138348 100.69850558 -5.09137173 96.78899092 -2.05834961 92.88891602 C-0.85768743 91.34428122 0.34073862 89.79790553 1.53686523 88.24975586 C4.36420637 84.59905318 7.21883205 80.9862993 10.1875 77.44921875 C10.70578369 76.82200928 11.22406738 76.1947998 11.75805664 75.54858398 C12.72447473 74.38353701 13.70472861 73.22977456 14.70092773 72.09008789 C17.0834038 69.1938413 17.83927985 67.9226347 17.59765625 64.109375 C17.33855469 63.24828125 17.07945312 62.3871875 16.8125 61.5 C13.02669978 59.9801532 12.20668984 60.16747114 9.015625 62.859375 Z " fill="#FDFDFD" transform="translate(218.1875,16.5)"/>
<path d="M0 0 C12.61047622 11.0932783 20.76545621 25.56738399 21.984375 42.44140625 C22.50329459 55.2633327 21.10980231 65.89911933 12.8125 76.19921875 C6.49506596 82.70809019 -1.45398661 86.17602685 -10.5 86.51171875 C-23.23295455 86.27905679 -33.50002989 80.35570982 -42.1953125 71.43359375 C-47.91497597 64.91147003 -52.22459721 58.23098202 -55.5 50.19921875 C-55.83902344 49.37550781 -56.17804687 48.55179688 -56.52734375 47.703125 C-60.12085346 37.0881954 -60.5259409 21.86023972 -56.5390625 11.296875 C-52.02836812 2.19069876 -46.04643403 -4.85768893 -36.5 -8.80078125 C-23.62486897 -12.73484906 -10.18565666 -8.00936084 0 0 Z M-43.5 3.19921875 C-51.24038429 11.1672614 -52.85173666 21.31420328 -52.70703125 31.99609375 C-51.79514882 46.10446349 -45.13760705 60.77894349 -34.5 70.19921875 C-26.986259 76.12440648 -18.58938884 80.45570894 -8.80078125 80.1015625 C-1.47655303 78.94628607 4.41315968 75.53495645 9.5 70.19921875 C9.17 69.53921875 8.84 68.87921875 8.5 68.19921875 C7.7265625 68.87984375 7.7265625 68.87984375 6.9375 69.57421875 C1.90251763 72.93087366 -3.55642128 73.79357662 -9.5 73.19921875 C-19.88416637 70.45916885 -28.39937815 65.13580536 -34.5 56.19921875 C-39.54076062 47.34773958 -42.89818025 39.13702311 -42.875 28.88671875 C-42.87338867 28.14196289 -42.87177734 27.39720703 -42.87011719 26.62988281 C-42.70502139 19.18114885 -40.56984993 13.78165132 -36.875 7.38671875 C-30.68612157 1.68643598 -23.75134421 -0.40152266 -15.5 -0.80078125 C-25.24034166 -6.11966445 -35.09651926 -3.44539393 -43.5 3.19921875 Z M-20.5 7.19921875 C-27.64554667 16.04358412 -27.37199761 26.30655586 -26.5 37.19921875 C-24.53656178 47.22931277 -18.32794383 55.55796744 -10.44921875 61.9140625 C-4.60438235 65.76767207 1.46010752 67.91757513 8.5 67.19921875 C9.49 66.86921875 10.48 66.53921875 11.5 66.19921875 C11.83 65.20921875 12.16 64.21921875 12.5 63.19921875 C11.7265625 63.245625 10.953125 63.29203125 10.15625 63.33984375 C3.18080325 63.58156715 -1.71620144 63.214003 -7.5 59.19921875 C-8.40685547 58.58046875 -8.40685547 58.58046875 -9.33203125 57.94921875 C-17.161902 51.94461199 -21.68821877 42.76722044 -23.5 33.19921875 C-24.46908367 25.64993732 -23.02042764 18.94579681 -19.5 12.19921875 C-16.13148494 7.97644051 -11.42583077 6.07103444 -6.5 4.19921875 C-7.16 3.53921875 -7.82 2.87921875 -8.5 2.19921875 C-13.73702103 2.19921875 -16.51584958 3.90280858 -20.5 7.19921875 Z " fill="#FCFBFC" transform="translate(99.5,93.80078125)"/>
<path d="M0 0 C-0.24932861 1.88442993 -0.24932861 1.88442993 -1 4 C-2.72186279 5.05429077 -2.72186279 5.05429077 -5.01074219 5.84912109 C-5.8770929 6.15901474 -6.7434436 6.46890839 -7.63604736 6.78819275 C-8.59662048 7.11332352 -9.5571936 7.43845428 -10.546875 7.7734375 C-12.06241974 8.30832542 -12.06241974 8.30832542 -13.60858154 8.85401917 C-15.81916526 9.63203004 -18.03238138 10.4025909 -20.24780273 11.16671753 C-23.77531224 12.3837329 -27.29557746 13.61983072 -30.81445312 14.86157227 C-35.20153676 16.40845699 -39.5899441 17.95137836 -43.98085022 19.48736668 C-56.4604577 23.85320417 -68.91867662 28.27863379 -81.36394882 32.74136734 C-85.43213149 34.19973369 -89.50368542 35.64809623 -93.57825089 37.08852863 C-96.73205632 38.20614555 -99.88125984 39.33651992 -103.03125 40.46484375 C-104.17164734 40.86514297 -105.31204468 41.2654422 -106.48699951 41.6778717 C-115.87792183 45.00255425 -115.87792183 45.00255425 -122.1328125 52.43359375 C-122.4628125 53.07498291 -122.7928125 53.71637207 -123.1328125 54.37719727 C-123.46023437 55.05709717 -123.78765625 55.73699707 -124.125 56.4375 C-124.47046875 57.15413818 -124.8159375 57.87077637 -125.171875 58.60913086 C-135.38561513 80.52042976 -132.03151618 104.25468731 -124.15771484 126.36523438 C-118.16362973 142.27923187 -109.15669517 156.61544522 -94 165 C-94.60990891 168.55780196 -95.5783681 171.6828589 -97 175 C-107.27852141 174.47289634 -116.35273979 165.14186782 -123 158 C-144.75433772 132.71698384 -155.91629781 104.3721225 -154 71 C-153.37727069 66.07582564 -152.11765098 61.49621598 -150 57 C-149.71390869 56.35337402 -149.42781738 55.70674805 -149.13305664 55.04052734 C-145.65901215 48.30322485 -140.69663704 46.51434447 -133.8125 44 C-132.64904053 43.55052002 -131.48558105 43.10104004 -130.28686523 42.63793945 C-127.66378338 41.62508282 -125.03477713 40.63004676 -122.40039062 39.64697266 C-117.63664283 37.86872803 -112.88861486 36.05028927 -108.140625 34.23046875 C-101.89940418 31.84145186 -95.65468806 29.46197257 -89.4054718 27.09394836 C-79.37729459 23.29379759 -69.36625382 19.45225335 -59.37301636 15.56115723 C-57.14598383 14.69565505 -54.91708318 13.83512728 -52.68774414 12.97558594 C-46.39600132 10.54304804 -40.12639989 8.08337836 -33.92745972 5.42167664 C-31.9996891 4.59474773 -30.06695377 3.78070423 -28.13232422 2.9699707 C-25.80141895 1.98656619 -23.48135621 0.97681322 -21.17626953 -0.06567383 C-13.26166033 -3.37049318 -8.01480648 -2.97869316 0 0 Z " fill="#FCFCFC" transform="translate(154,20)"/>
<path d="M0 0 C5.06531665 2.78285961 9.88629942 5.9028066 14.54296875 9.32421875 C12.92558049 16.45561102 9.54775443 22.89175174 4.12011719 27.86132812 C-4.87532389 32.96749362 -19.71672812 29.4659816 -29.45703125 28.32421875 C-33.45492746 27.96335714 -37.45529514 27.63937895 -41.45703125 27.32421875 C-41.01115564 20.52461568 -39.91175188 13.93589347 -38.58203125 7.26171875 C-38.42057617 6.40408936 -38.25912109 5.54645996 -38.09277344 4.6628418 C-37.92680664 3.85886963 -37.76083984 3.05489746 -37.58984375 2.2265625 C-37.44434082 1.49945068 -37.29883789 0.77233887 -37.14892578 0.02319336 C-36.80643799 -0.81779907 -36.80643799 -0.81779907 -36.45703125 -1.67578125 C-25.57650705 -5.30262265 -10.29225529 -4.91093573 0 0 Z " fill="#FDFDFD" transform="translate(100.45703125,211.67578125)"/>
<path d="M0 0 C2.27464775 -0.01179572 4.54649028 -0.06086155 6.82055664 -0.11157227 C15.1534839 -0.20822903 21.37197648 0.3369079 28.24438477 5.42553711 C29.90896872 6.49259518 31.57573149 7.55626014 33.24438477 8.61694336 C34.91386273 9.73646027 36.58052157 10.86019224 38.24438477 11.98803711 C39.10161133 12.55200195 39.95883789 13.1159668 40.84204102 13.69702148 C42.06213867 14.52363281 42.06213867 14.52363281 43.30688477 15.36694336 C44.04036133 15.85880127 44.77383789 16.35065918 45.52954102 16.85742188 C47.54899683 18.70408541 48.02143007 19.71529591 48.24438477 22.42553711 C46.81079102 25.44116211 46.81079102 25.44116211 44.80688477 28.67553711 C44.14817383 29.75319336 43.48946289 30.83084961 42.81079102 31.94116211 C42.29387695 32.76100586 41.77696289 33.58084961 41.24438477 34.42553711 C37.76534717 33.81418271 35.73084271 32.49055208 32.98657227 30.30053711 C32.19637695 29.67663086 31.40618164 29.05272461 30.59204102 28.40991211 C29.77606445 27.75506836 28.96008789 27.10022461 28.11938477 26.42553711 C26.49288379 25.13248156 24.8653305 23.84074822 23.23657227 22.55053711 C22.51840332 21.97561523 21.80023438 21.40069336 21.06030273 20.80834961 C17.58552442 18.16232321 15.03843409 18.24100818 10.70532227 18.10913086 C8.75239258 18.04628906 8.75239258 18.04628906 6.76000977 17.98217773 C5.37980432 17.94236412 3.99959594 17.90265189 2.61938477 17.86303711 C1.23135062 17.81984304 -0.15667051 17.77622846 -1.54467773 17.73217773 C-4.9482178 17.62581711 -8.35183301 17.52378997 -11.75561523 17.42553711 C-13.63150917 13.77951274 -15.15088192 10.77715276 -15.56811523 6.67553711 C-15.65706055 5.91756836 -15.74600586 5.15959961 -15.83764648 4.37866211 C-15.56129376 -2.20116462 -4.81823712 0.01182074 0 0 Z " fill="#FBFBFB" transform="translate(78.755615234375,183.574462890625)"/>
<path d="M0 0 C0.495 0.99 0.495 0.99 1 2 C0.34 2.33 -0.32 2.66 -1 3 C-0.505 3.99 -0.505 3.99 0 5 C-14.51204614 11.28375725 -29.09983209 17.35868176 -43.75 23.3125 C-46.65520506 24.49383046 -49.56015892 25.67576276 -52.4644165 26.85942078 C-54.24587372 27.58543044 -56.02785506 28.31015607 -57.81048584 29.03327942 C-62.66931119 31.01294028 -67.44625132 33.09749116 -72.17926025 35.36369324 C-72.78010437 35.57367447 -73.38094849 35.7836557 -74 36 C-76 35 -76 35 -77 32 C-77.70125 32.61875 -78.4025 33.2375 -79.125 33.875 C-82.12064685 36.08917376 -84.45684161 36.93705248 -88 38 C-89.25496112 38.55134275 -90.50497779 39.11406653 -91.75 39.6875 C-92.8225 40.120625 -93.895 40.55375 -95 41 C-95.66 40.67 -96.32 40.34 -97 40 C-97.33 40.66 -97.66 41.32 -98 42 C-98.99 42.495 -98.99 42.495 -100 43 C-100 41.68 -100 40.36 -100 39 C-90.76114493 35.29811766 -81.51966827 31.60286326 -72.27494049 27.91566944 C-67.98069094 26.20270688 -63.68732036 24.48761328 -59.39599609 22.76733398 C-55.24187106 21.10215114 -51.0853893 19.44297832 -46.92732239 17.78766441 C-45.35437066 17.16031908 -43.78222823 16.53094 -42.21098328 15.89933205 C-33.0794204 12.23041425 -23.95901613 8.91788696 -14.51843262 6.1282196 C-9.47399875 4.51067287 -4.73643478 2.35818257 0 0 Z " fill="#F8F8F8" transform="translate(194,15)"/>
<path d="M0 0 C0.66 0 1.32 0 2 0 C0.35728782 3.71164158 -1.94892687 6.68166296 -4.4375 9.875 C-4.87924561 10.44307373 -5.32099121 11.01114746 -5.77612305 11.59643555 C-7.18070837 13.40028383 -8.5903114 15.20013843 -10 17 C-10.88301014 18.13396071 -11.76582581 19.26807288 -12.6484375 20.40234375 C-17.54776146 26.68225495 -22.52498994 32.89293209 -27.5625 39.0625 C-32.73655079 45.40065538 -37.75782646 51.83507544 -42.72460938 58.33642578 C-45.09199364 61.4243577 -47.48030461 64.49572171 -49.875 67.5625 C-50.32762207 68.14660645 -50.78024414 68.73071289 -51.24658203 69.33251953 C-53.66504208 72.42262358 -56.15606803 75.29495773 -59 78 C-59.33 77.01 -59.66 76.02 -60 75 C-59.30777344 74.25169922 -59.30777344 74.25169922 -58.6015625 73.48828125 C-54.14378919 68.58120668 -50.00941047 63.50682361 -45.99902344 58.22851562 C-42.68573404 53.87275837 -39.30023742 49.58072371 -35.875 45.3125 C-35.36300049 44.6743335 -34.85100098 44.03616699 -34.32348633 43.37866211 C-32.88318785 41.5850785 -31.4417634 39.79240611 -30 38 C-25.53349176 32.4391567 -21.09378503 26.85862852 -16.6875 21.25 C-16.22859375 20.66710205 -15.7696875 20.0842041 -15.296875 19.48364258 C-12.81996325 16.33375046 -10.36029194 13.17199417 -7.921875 9.9921875 C-7.42212158 9.34475586 -6.92236816 8.69732422 -6.4074707 8.03027344 C-5.44256993 6.77963639 -4.48259313 5.52518169 -3.52807617 4.26660156 C-2.39835314 2.80734973 -1.20467396 1.3980167 0 0 Z " fill="#EDEDED" transform="translate(233,82)"/>
<path d="M0 0 C0.29296875 6.0546875 0.29296875 6.0546875 0 8 C-3.43616606 10.29077738 -5.56730056 10.53720095 -9.63671875 11.0703125 C-10.93544922 11.24433594 -12.23417969 11.41835937 -13.57226562 11.59765625 C-14.94398876 11.77360641 -16.31573385 11.94938547 -17.6875 12.125 C-19.07105838 12.30787764 -20.45452339 12.49146324 -21.83789062 12.67578125 C-25.22440509 13.12416993 -28.61170945 13.56527115 -32 14 C-32 13.01 -32 12.02 -32 11 C-28.08906803 9.42465771 -24.17466854 7.85836855 -20.25683594 6.30029297 C-18.92512188 5.76922744 -17.59437892 5.23571988 -16.26464844 4.69970703 C-14.3508234 3.92874164 -12.43365384 3.16668649 -10.515625 2.40625 C-9.36352539 1.94541016 -8.21142578 1.48457031 -7.02441406 1.00976562 C-4 0 -4 0 0 0 Z " fill="#F9F9F9" transform="translate(82,60)"/>
<path d="M0 0 C0.50305664 0.38462402 1.00611328 0.76924805 1.52441406 1.16552734 C0.55503906 1.59865234 -0.41433594 2.03177734 -1.41308594 2.47802734 C-4.75290358 3.86701344 -4.75290358 3.86701344 -5.47558594 7.16552734 C-8.53808594 8.35302734 -8.53808594 8.35302734 -11.47558594 9.16552734 C-11.80558594 7.84552734 -12.13558594 6.52552734 -12.47558594 5.16552734 C-13.17683594 5.78427734 -13.87808594 6.40302734 -14.60058594 7.04052734 C-17.59623279 9.2547011 -19.93242755 10.10257983 -23.47558594 11.16552734 C-24.73054706 11.7168701 -25.98056373 12.27959388 -27.22558594 12.85302734 C-28.29808594 13.28615234 -29.37058594 13.71927734 -30.47558594 14.16552734 C-31.13558594 13.83552734 -31.79558594 13.50552734 -32.47558594 13.16552734 C-32.80558594 13.82552734 -33.13558594 14.48552734 -33.47558594 15.16552734 C-34.13558594 15.49552734 -34.79558594 15.82552734 -35.47558594 16.16552734 C-35.47558594 14.84552734 -35.47558594 13.52552734 -35.47558594 12.16552734 C-30.85696577 10.25770416 -26.23071192 8.3703321 -21.59619141 6.50146484 C-20.02068209 5.86282379 -18.44740596 5.21864454 -16.87646484 4.56884766 C-14.61827379 3.63589949 -12.35280733 2.72314594 -10.08496094 1.81396484 C-9.38377136 1.51928314 -8.68258179 1.22460144 -7.96014404 0.92098999 C-3.03252826 -1.02220726 -3.03252826 -1.02220726 0 0 Z " fill="#F2F2F2" transform="translate(129.4755859375,41.83447265625)"/>
<path d="M0 0 C-0.33 0.99 -0.66 1.98 -1 3 C-3.64 3.33 -6.28 3.66 -9 4 C-9 3.01 -9 2.02 -9 1 C-3.375 -1.125 -3.375 -1.125 0 0 Z " fill="#F1F0F1" transform="translate(59,70)"/>
<path d="M0 0 C-4.455 1.485 -4.455 1.485 -9 3 C-9 2.01 -9 1.02 -9 0 C-4.5 -2.25 -4.5 -2.25 0 0 Z " fill="#F0F0F0" transform="translate(131,43)"/>
<path d="M0 0 C1 4 1 4 0.00390625 5.703125 C-1.33072917 7.13541667 -2.66536458 8.56770833 -4 10 C-4.66 9.34 -5.32 8.68 -6 8 C-4.02 5.36 -2.04 2.72 0 0 Z " fill="#E3E3E3" transform="translate(224,93)"/>
</svg>
